# xmcd
#
# Track frame offsets:
# 150
# 16897
# 28351
# 43346
# 58268
# 76793
# 96713
# 116504
# 131364
# 150638
# 165332
# 181556
# 194839
# 210131
# 224457
# 240333
# 256615
# 275836
# 293064
# 313609
#
# Disc length: 4457 seconds
#
#
# Revision: 2
# Processed by: cddbd v1.5.1PL0 Copyright (c) Steve Scherf et al.
# Submitted via: FreeRIP 2.92 
#
DISCID=18116714
DTITLE=The Bellamy Brothers - The 25 year collection Vol 2
DYEAR=2001
DGENRE=Country
TTITLE0=For all the wrong reasons
TTITLE1=Country rap
TTITLE2=Dancin' Cowboys
TTITLE3=Lovers live longer
TTITLE4=Old Hippie (The Sequel) - Live
TTITLE5=We dared the lightning
TTITLE6=Desperadoes in love
TTITLE7=Big Love
TTITLE8=Almost Jamaica
TTITLE9=Kids of the Baby Boom
TTITLE10=Forget about me
TTITLE11=You're my favourite star
TTITLE12=You'll never be sorry
TTITLE13=Big Hair
TTITLE14=Rip off the knob
TTITLE15=Catahoula
TTITLE16=World's greatest lover
TTITLE17=Some broken hearts
TTITLE18=Big Hat, No Cattle
TTITLE19=Sante Fe - Live
EXTD=
EXTT0=
EXTT1=
EXTT2=
EXTT3=
EXTT4=
EXTT5=
EXTT6=
EXTT7=
EXTT8=
EXTT9=
EXTT10=
EXTT11=
EXTT12=
EXTT13=
EXTT14=
EXTT15=
EXTT16=
EXTT17=
EXTT18=
EXTT19=
PLAYORDER=
